# xmcd
#
# Track frame offsets:
#	150
#	16762
#	26634
#	41198
#	59057
#	72118
#	84781
#	98214
#	111078
#	124572
#	136961
#	150380
#	163623
#	176511
#	189501
#	203650
#	218762
#	236048
#	251509
#	263460
#	275843
#	287899
#	298649
#	310052
#	318825
#
# Disc length: 4380 seconds
#
# Revision: 0
# Processed by: cddbd v1.5.2PL0 Copyright (c) Steve Scherf et al.
# Submitted via: dBpowerAMP V4.0
#
DISCID=5f111a19
DTITLE=Frank Sinatra - Classic Sinatra
DYEAR=1953
DGENRE=Swing
TTITLE0=I've Got You Under My Skin
TTITLE1=Chicago
TTITLE2=The Lady Is A Tramp
TTITLE3=Night And Day
TTITLE4=You Make Me Feel So Young
TTITLE5=Oh! Look At Me Now
TTITLE6=In The Wee Small Hours Of The Morning
TTITLE7=All The Way
TTITLE8=Learnin' The Blues
TTITLE9=Not As A Stranger
TTITLE10=From Here To Eternity
TTITLE11=(Love Is) The Tender Trap
TTITLE12=Young At Heart
TTITLE13=I Get A Kick Out Of You
TTITLE14=You're Sensational
TTITLE15=I Won't Dance
TTITLE16=From This Moment On
TTITLE17=Laura
TTITLE18=Love Is Here To Stay
TTITLE19=How About You?
TTITLE20=Anything Goes
TTITLE21=At Long Last Love
TTITLE22=What Is This Thing Called Love?
TTITLE23=They Can't Take That Away From Me
TTITLE24=I've Got The World On A String
EXTD=Swing Hat No. SH751
EXTT0=
EXTT1=
EXTT2=
EXTT3=
EXTT4=
EXTT5=
EXTT6=
EXTT7=
EXTT8=
EXTT9=
EXTT10=
EXTT11=
EXTT12=
EXTT13=
EXTT14=
EXTT15=
EXTT16=
EXTT17=
EXTT18=
EXTT19=
EXTT20=
EXTT21=
EXTT22=
EXTT23=
EXTT24=
PLAYORDER=
